<svg width="140" height="36" viewBox="0 0 140 36" fill="none" xmlns="http://www.w3.org/2000/svg">
<rect width="140" height="36" rx="4" fill="#82B3D3"/>
<path d="M28.8788 15.408C28.8788 15.6853 28.8415 15.9627 28.7668 16.24C28.7028 16.5173 28.5908 16.7733 28.4308 17.008C28.2708 17.232 28.0628 17.4347 27.8068 17.616C27.5508 17.7867 27.2415 17.9147 26.8788 18V18.096C27.1988 18.1493 27.5028 18.24 27.7908 18.368C28.0788 18.496 28.3295 18.672 28.5428 18.896C28.7561 19.12 28.9215 19.392 29.0388 19.712C29.1668 20.032 29.2308 20.4107 29.2308 20.848C29.2308 21.424 29.1081 21.9253 28.8628 22.352C28.6175 22.768 28.2868 23.1093 27.8708 23.376C27.4655 23.6427 27.0015 23.84 26.4788 23.968C25.9561 24.096 25.4175 24.16 24.8628 24.16C24.6815 24.16 24.4468 24.16 24.1588 24.16C23.8815 24.16 23.5775 24.1493 23.2468 24.128C22.9268 24.1173 22.5961 24.096 22.2548 24.064C21.9241 24.032 21.6201 23.984 21.3428 23.92V12.88C21.5455 12.848 21.7748 12.816 22.0308 12.784C22.2975 12.752 22.5801 12.7253 22.8788 12.704C23.1775 12.6827 23.4815 12.6667 23.7908 12.656C24.1108 12.6453 24.4255 12.64 24.7348 12.64C25.2575 12.64 25.7641 12.6827 26.2548 12.768C26.7561 12.8427 27.1988 12.9813 27.5828 13.184C27.9775 13.3867 28.2921 13.6693 28.5268 14.032C28.7615 14.3947 28.8788 14.8533 28.8788 15.408ZM24.8788 22.352C25.1455 22.352 25.4015 22.32 25.6468 22.256C25.9028 22.192 26.1268 22.096 26.3188 21.968C26.5108 21.8293 26.6655 21.6587 26.7828 21.456C26.9001 21.2533 26.9588 21.0133 26.9588 20.736C26.9588 20.384 26.8895 20.1067 26.7508 19.904C26.6121 19.7013 26.4308 19.5467 26.2068 19.44C25.9828 19.3227 25.7321 19.248 25.4548 19.216C25.1775 19.184 24.9001 19.168 24.6228 19.168H23.4548V22.256C23.5081 22.2773 23.5935 22.2933 23.7108 22.304C23.8281 22.3147 23.9508 22.3253 24.0788 22.336C24.2175 22.336 24.3561 22.3413 24.4948 22.352C24.6441 22.352 24.7721 22.352 24.8788 22.352ZM24.1588 17.504C24.3081 17.504 24.4788 17.4987 24.6708 17.488C24.8735 17.4773 25.0388 17.4613 25.1668 17.44C25.5721 17.312 25.9188 17.12 26.2068 16.864C26.5055 16.608 26.6548 16.272 26.6548 15.856C26.6548 15.5787 26.6015 15.3493 26.4948 15.168C26.3881 14.9867 26.2441 14.8427 26.0628 14.736C25.8921 14.6293 25.6948 14.5547 25.4708 14.512C25.2468 14.4693 25.0121 14.448 24.7668 14.448C24.4895 14.448 24.2335 14.4533 23.9988 14.464C23.7641 14.4747 23.5828 14.4907 23.4548 14.512V17.504H24.1588ZM41.3708 17.792L41.4988 16.336H41.4188L40.6668 17.84L36.4908 24H34.8428V12.8H37.0348V18.896L36.8748 20.4H36.9708L37.7548 18.848L41.9308 12.8H43.5628V24H41.3708V17.792ZM46.4591 19.04V17.328H46.8431C46.9391 17.328 47.0564 17.328 47.1951 17.328C47.3337 17.328 47.4724 17.328 47.6111 17.328C47.7604 17.3173 47.9044 17.3067 48.0431 17.296C48.1817 17.2747 48.2937 17.2533 48.3791 17.232C48.7524 17.1467 49.0724 16.9973 49.3391 16.784C49.6057 16.56 49.7391 16.2613 49.7391 15.888C49.7391 15.376 49.5737 15.0293 49.2431 14.848C48.9231 14.656 48.4964 14.56 47.9631 14.56C47.4831 14.56 47.0351 14.624 46.6191 14.752C46.2031 14.88 45.8884 15.0027 45.6751 15.12L45.1151 13.264C45.2324 13.2 45.3977 13.1307 45.6111 13.056C45.8351 12.9813 46.0857 12.912 46.3631 12.848C46.6511 12.7733 46.9604 12.7147 47.2911 12.672C47.6217 12.6293 47.9577 12.608 48.2991 12.608C48.7684 12.608 49.2271 12.6507 49.6751 12.736C50.1231 12.8213 50.5231 12.9707 50.8751 13.184C51.2271 13.3973 51.5097 13.6853 51.7231 14.048C51.9364 14.4 52.0431 14.8533 52.0431 15.408C52.0431 15.9627 51.8937 16.4747 51.5951 16.944C51.3071 17.4133 50.8377 17.7547 50.1871 17.968V18.048C50.8804 18.1867 51.4191 18.4853 51.8031 18.944C52.1977 19.4027 52.3951 20.016 52.3951 20.784C52.3951 21.392 52.2724 21.9147 52.0271 22.352C51.7817 22.7787 51.4564 23.1307 51.0511 23.408C50.6564 23.6853 50.1977 23.888 49.6751 24.016C49.1524 24.1547 48.6191 24.224 48.0751 24.224C47.3711 24.224 46.7311 24.1653 46.1551 24.048C45.5791 23.9307 45.1364 23.792 44.8271 23.632L45.3871 21.728C45.6324 21.8453 45.9844 21.968 46.4431 22.096C46.9017 22.2133 47.4457 22.272 48.0751 22.272C48.3097 22.272 48.5444 22.2453 48.7791 22.192C49.0244 22.128 49.2431 22.032 49.4351 21.904C49.6271 21.7653 49.7817 21.5893 49.8991 21.376C50.0164 21.1627 50.0751 20.9067 50.0751 20.608C50.0751 20.1067 49.8884 19.728 49.5151 19.472C49.1417 19.216 48.4751 19.0773 47.5151 19.056C47.3871 19.0453 47.2911 19.04 47.2271 19.04C47.1631 19.04 47.0511 19.04 46.8911 19.04H46.4591ZM53.9209 12.8H60.8169V14.752H56.1129V17.088C56.2943 17.056 56.5129 17.024 56.7689 16.992C57.0356 16.96 57.2969 16.944 57.5529 16.944C58.1503 16.944 58.6996 17.0027 59.2009 17.12C59.7023 17.2373 60.1289 17.4347 60.4809 17.712C60.8436 17.9787 61.1263 18.336 61.3289 18.784C61.5316 19.2213 61.6329 19.76 61.6329 20.4C61.6329 21.0293 61.5263 21.5787 61.3129 22.048C61.1103 22.5173 60.8116 22.9067 60.4169 23.216C60.0329 23.5253 59.5636 23.76 59.0089 23.92C58.4649 24.08 57.8516 24.16 57.1689 24.16C56.9876 24.16 56.7583 24.1547 56.4809 24.144C56.2143 24.1333 55.9263 24.1173 55.6169 24.096C55.3183 24.0747 55.0196 24.048 54.7209 24.016C54.4223 23.984 54.1556 23.9413 53.9209 23.888V12.8ZM57.3289 22.352C57.6063 22.352 57.8623 22.32 58.0969 22.256C58.3423 22.1813 58.5556 22.0747 58.7369 21.936C58.9183 21.7867 59.0623 21.6 59.1689 21.376C59.2756 21.152 59.3289 20.88 59.3289 20.56C59.3289 20.176 59.2703 19.8667 59.1529 19.632C59.0356 19.3973 58.8756 19.216 58.6729 19.088C58.4703 18.9493 58.2356 18.8587 57.9689 18.816C57.7129 18.7733 57.4356 18.752 57.1369 18.752C56.9876 18.752 56.8009 18.768 56.5769 18.8C56.3529 18.8213 56.1983 18.8427 56.1129 18.864V22.272C56.2303 22.304 56.4063 22.3253 56.6409 22.336C56.8863 22.3467 57.1156 22.352 57.3289 22.352ZM63.0459 12.912C63.4939 12.8267 63.9846 12.7627 64.5179 12.72C65.0619 12.6667 65.6006 12.64 66.1339 12.64C66.6886 12.64 67.2433 12.688 67.7979 12.784C68.3633 12.8693 68.8699 13.0507 69.3179 13.328C69.7659 13.5947 70.1286 13.9733 70.4059 14.464C70.6939 14.944 70.8379 15.5733 70.8379 16.352C70.8379 17.056 70.7153 17.6533 70.4699 18.144C70.2246 18.624 69.8993 19.0187 69.4939 19.328C69.0886 19.6373 68.6246 19.8613 68.1019 20C67.5899 20.1387 67.0566 20.208 66.5019 20.208C66.4486 20.208 66.3633 20.208 66.2459 20.208C66.1286 20.208 66.0059 20.208 65.8779 20.208C65.7499 20.1973 65.6219 20.1867 65.4939 20.176C65.3766 20.1653 65.2913 20.1547 65.2379 20.144V24H63.0459V12.912ZM66.3099 14.528C66.0966 14.528 65.8939 14.5387 65.7019 14.56C65.5099 14.5707 65.3553 14.5867 65.2379 14.608V18.24C65.2806 18.2507 65.3446 18.2613 65.4299 18.272C65.5153 18.2827 65.6059 18.2933 65.7019 18.304C65.7979 18.304 65.8886 18.304 65.9739 18.304C66.0699 18.304 66.1393 18.304 66.1819 18.304C66.4699 18.304 66.7526 18.2773 67.0299 18.224C67.3179 18.1707 67.5739 18.0747 67.7979 17.936C68.0219 17.7867 68.1979 17.584 68.3259 17.328C68.4646 17.072 68.5339 16.736 68.5339 16.32C68.5339 15.968 68.4699 15.68 68.3419 15.456C68.2139 15.2213 68.0433 15.0347 67.8299 14.896C67.6273 14.7573 67.3926 14.6613 67.1259 14.608C66.8593 14.5547 66.5873 14.528 66.3099 14.528ZM76.4878 21.52H73.0478L72.1998 24H70.0078L74.0398 12.72H75.6558L79.6878 24H77.3838L76.4878 21.52ZM73.6078 19.76H76.0078L75.1758 17.264L74.8398 15.504H74.7598L74.4238 17.28L73.6078 19.76ZM86.9433 19.312H82.8473V24H80.6553V12.8H82.8473V17.36H86.9433V12.8H89.1353V24H86.9433V19.312ZM97.3652 19.312H93.2692V24H91.0772V12.8H93.2692V17.36H97.3652V12.8H99.5572V24H97.3652V19.312ZM101.147 18.4C101.147 16.5333 101.558 15.0987 102.379 14.096C103.2 13.0827 104.374 12.576 105.899 12.576C106.699 12.576 107.398 12.7147 107.995 12.992C108.592 13.2693 109.088 13.664 109.483 14.176C109.878 14.688 110.171 15.3013 110.363 16.016C110.555 16.7307 110.651 17.5253 110.651 18.4C110.651 20.2667 110.235 21.7067 109.403 22.72C108.582 23.7227 107.414 24.224 105.899 24.224C105.088 24.224 104.384 24.0853 103.787 23.808C103.19 23.5307 102.694 23.136 102.299 22.624C101.915 22.112 101.627 21.4987 101.435 20.784C101.243 20.0693 101.147 19.2747 101.147 18.4ZM103.451 18.4C103.451 18.9653 103.499 19.488 103.595 19.968C103.691 20.4373 103.835 20.8427 104.027 21.184C104.23 21.5253 104.486 21.792 104.795 21.984C105.104 22.176 105.472 22.272 105.899 22.272C106.678 22.272 107.28 21.968 107.707 21.36C108.134 20.752 108.347 19.7653 108.347 18.4C108.347 17.856 108.299 17.3493 108.203 16.88C108.118 16.4107 107.979 16 107.787 15.648C107.595 15.296 107.344 15.024 107.035 14.832C106.726 14.6293 106.347 14.528 105.899 14.528C105.12 14.528 104.518 14.8427 104.091 15.472C103.664 16.0907 103.451 17.0667 103.451 18.4ZM112.218 12.8H118.858V14.752H114.41V17.36H118.458V19.312H114.41V22.048H118.938V24H112.218V12.8Z" fill="white"/>
</svg>
