<svg xmlns="http://www.w3.org/2000/svg" width="140" height="36" fill="none"><rect width="140" height="36" fill="#82B3D3" rx="4"/><path fill="#fff" d="M28.879 15.408c0 .277-.038.555-.112.832a2.25 2.25 0 0 1-.336.768c-.16.224-.368.427-.624.608-.256.17-.566.299-.928.384v.096c.32.053.624.144.912.272.288.128.538.304.752.528.213.224.379.496.496.816.128.32.192.699.192 1.136 0 .576-.123 1.077-.368 1.504a3.034 3.034 0 0 1-.992 1.024c-.405.267-.87.464-1.392.592a6.769 6.769 0 0 1-1.616.192h-.704c-.277 0-.581-.01-.912-.032-.32-.01-.65-.032-.992-.064a7.112 7.112 0 0 1-.912-.144V12.88a17.696 17.696 0 0 1 1.536-.176 24.951 24.951 0 0 1 1.856-.064c.523 0 1.03.043 1.52.128a4.13 4.13 0 0 1 1.328.416c.395.203.71.485.944.848.235.363.352.821.352 1.376Zm-4 6.944c.266 0 .522-.032.768-.096.256-.064.48-.16.672-.288.192-.139.347-.31.464-.512.117-.203.176-.443.176-.72 0-.352-.07-.63-.208-.832a1.351 1.351 0 0 0-.544-.464 2.133 2.133 0 0 0-.752-.224 7.253 7.253 0 0 0-.832-.048h-1.168v3.088a.991.991 0 0 0 .256.048l.368.032c.139 0 .277.005.416.016h.384Zm-.72-4.848c.15 0 .32-.005.512-.016a4.61 4.61 0 0 0 .496-.048 2.82 2.82 0 0 0 1.04-.576c.299-.256.448-.592.448-1.008 0-.277-.053-.507-.16-.688a1.2 1.2 0 0 0-.432-.432 1.71 1.71 0 0 0-.592-.224 3.754 3.754 0 0 0-.704-.064c-.277 0-.534.005-.768.016-.235.01-.416.027-.544.048v2.992h.704Zm17.212.288.128-1.456h-.08l-.752 1.504L36.49 24h-1.648V12.8h2.192v6.096l-.16 1.504h.096l.784-1.552L41.93 12.8h1.632V24H41.37v-6.208Zm5.088 1.248v-1.712h1.152c.15-.01.293-.021.432-.032.139-.021.25-.043.336-.064a2.35 2.35 0 0 0 .96-.448c.267-.224.4-.523.4-.896 0-.512-.165-.859-.496-1.04-.32-.192-.747-.288-1.28-.288-.48 0-.928.064-1.344.192-.416.128-.73.25-.944.368l-.56-1.856c.117-.064.283-.133.496-.208.224-.075.475-.144.752-.208a7.862 7.862 0 0 1 1.936-.24c.47 0 .928.043 1.376.128a3.59 3.59 0 0 1 1.2.448c.352.213.635.501.848.864.213.352.32.805.32 1.36s-.15 1.067-.448 1.536c-.288.47-.757.81-1.408 1.024v.08c.693.139 1.232.437 1.616.896.395.459.592 1.072.592 1.84 0 .608-.123 1.13-.368 1.568a3.19 3.19 0 0 1-.976 1.056 4.04 4.04 0 0 1-1.376.608 6.212 6.212 0 0 1-1.6.208 9.648 9.648 0 0 1-1.92-.176c-.576-.117-1.019-.256-1.328-.416l.56-1.904c.245.117.597.24 1.056.368.459.117 1.003.176 1.632.176.235 0 .47-.027.704-.08.245-.064.464-.16.656-.288.192-.139.347-.315.464-.528.117-.213.176-.47.176-.768 0-.501-.187-.88-.56-1.136-.373-.256-1.04-.395-2-.416a3.78 3.78 0 0 0-.288-.016h-.768Zm7.462-6.24h6.896v1.952h-4.704v2.336c.181-.032.4-.064.656-.096a7.232 7.232 0 0 1 2.432.128c.501.117.928.315 1.28.592.363.267.645.624.848 1.072.203.437.304.976.304 1.616 0 .63-.107 1.179-.32 1.648-.203.47-.501.859-.896 1.168-.384.31-.853.544-1.408.704-.544.16-1.157.24-1.84.24-.181 0-.41-.005-.688-.016a25.333 25.333 0 0 1-1.76-.128 7.013 7.013 0 0 1-.8-.128V12.8Zm3.408 9.552c.277 0 .533-.032.768-.096a2 2 0 0 0 .64-.32 1.61 1.61 0 0 0 .432-.56c.107-.224.16-.496.16-.816 0-.384-.059-.693-.176-.928a1.328 1.328 0 0 0-.48-.544 1.706 1.706 0 0 0-.704-.272 5.065 5.065 0 0 0-.832-.064c-.15 0-.336.016-.56.048a3.679 3.679 0 0 0-.464.064v3.408c.117.032.293.053.528.064.245.01.475.016.688.016Zm5.717-9.44c.448-.085.939-.15 1.472-.192.544-.053 1.083-.08 1.616-.08.555 0 1.11.048 1.664.144a3.983 3.983 0 0 1 1.52.544c.448.267.81.645 1.088 1.136.288.48.432 1.11.432 1.888 0 .704-.123 1.301-.368 1.792-.245.48-.57.875-.976 1.184-.405.31-.87.533-1.392.672a6.092 6.092 0 0 1-1.6.208h-.624l-.384-.032a2.706 2.706 0 0 1-.256-.032V24h-2.192V12.912Zm3.264 1.616c-.213 0-.416.01-.608.032a3.93 3.93 0 0 0-.464.048v3.632c.043.01.107.021.192.032l.272.032h.48c.288 0 .57-.027.848-.08.288-.053.544-.15.768-.288.224-.15.4-.352.528-.608.139-.256.208-.592.208-1.008 0-.352-.064-.64-.192-.864a1.525 1.525 0 0 0-.512-.56 1.885 1.885 0 0 0-.704-.288 4.152 4.152 0 0 0-.816-.08Zm10.178 6.992h-3.44L72.2 24h-2.192l4.032-11.28h1.616L79.688 24h-2.304l-.896-2.48Zm-2.88-1.76h2.4l-.832-2.496-.336-1.76h-.08l-.336 1.776-.816 2.48Zm13.335-.448h-4.096V24h-2.192V12.8h2.192v4.56h4.096V12.8h2.192V24h-2.192v-4.688Zm10.422 0H93.27V24h-2.192V12.8h2.192v4.56h4.096V12.8h2.192V24h-2.192v-4.688Zm3.782-.912c0-1.867.411-3.301 1.232-4.304.821-1.013 1.995-1.52 3.52-1.52.8 0 1.499.139 2.096.416a3.953 3.953 0 0 1 1.488 1.184c.395.512.688 1.125.88 1.84.192.715.288 1.51.288 2.384 0 1.867-.416 3.307-1.248 4.32-.821 1.003-1.989 1.504-3.504 1.504-.811 0-1.515-.139-2.112-.416a3.953 3.953 0 0 1-1.488-1.184c-.384-.512-.672-1.125-.864-1.84-.192-.715-.288-1.51-.288-2.384Zm2.304 0c0 .565.048 1.088.144 1.568.096.47.24.875.432 1.216.203.341.459.608.768.8.309.192.677.288 1.104.288.779 0 1.381-.304 1.808-.912.427-.608.64-1.595.64-2.96 0-.544-.048-1.05-.144-1.52a4.076 4.076 0 0 0-.416-1.232 2.146 2.146 0 0 0-.752-.816c-.309-.203-.688-.304-1.136-.304-.779 0-1.381.315-1.808.944-.427.619-.64 1.595-.64 2.928Zm8.767-5.6h6.64v1.952h-4.448v2.608h4.048v1.952h-4.048v2.736h4.528V24h-6.72V12.8Z"/></svg>