<svg xmlns="http://www.w3.org/2000/svg" width="140" height="36" fill="none"><rect width="140" height="36" fill="#756157" rx="4"/><path fill="#fff" d="M33.236 14.752h-3.92V24h-2.192V12.8h8.304V24h-2.192v-9.248Zm3.755 3.648c0-1.867.41-3.301 1.232-4.304.821-1.013 1.995-1.52 3.52-1.52.8 0 1.498.139 2.096.416a3.949 3.949 0 0 1 1.488 1.184c.395.512.688 1.125.88 1.84.192.715.288 1.51.288 2.384 0 1.867-.416 3.307-1.248 4.32-.822 1.003-1.99 1.504-3.504 1.504-.81 0-1.515-.139-2.112-.416a3.949 3.949 0 0 1-1.488-1.184c-.384-.512-.672-1.125-.864-1.84-.192-.715-.288-1.51-.288-2.384Zm2.304 0c0 .565.048 1.088.144 1.568.096.47.24.875.432 1.216.203.341.459.608.768.8.31.192.677.288 1.104.288.779 0 1.381-.304 1.808-.912.426-.608.64-1.595.64-2.96 0-.544-.048-1.05-.144-1.52a4.084 4.084 0 0 0-.416-1.232 2.143 2.143 0 0 0-.752-.816c-.31-.203-.688-.304-1.136-.304-.779 0-1.382.315-1.808.944-.427.619-.64 1.595-.64 2.928ZM57.589 26h-1.552l-.24-2h-7.2l-.24 2h-1.552v-3.952h1.184c.074-.117.197-.379.368-.784.17-.405.341-.976.512-1.712.17-.747.314-1.675.432-2.784.117-1.12.17-2.443.16-3.968h6.704v9.248h1.424V26Zm-3.616-3.952v-7.296h-2.48c-.064 1.899-.219 3.456-.464 4.672-.235 1.205-.475 2.08-.72 2.624h3.664Zm4.854-9.136c.448-.085.939-.15 1.472-.192.544-.053 1.083-.08 1.616-.08.555 0 1.11.048 1.664.144a3.983 3.983 0 0 1 1.52.544c.448.267.81.645 1.088 1.136.288.48.432 1.11.432 1.888 0 .704-.123 1.301-.368 1.792-.245.48-.57.875-.976 1.184-.405.31-.87.533-1.392.672a6.092 6.092 0 0 1-1.6.208h-.624l-.384-.032a2.701 2.701 0 0 1-.256-.032V24h-2.192V12.912Zm3.264 1.616c-.213 0-.416.01-.608.032-.192.01-.346.027-.464.048v3.632c.043.01.107.021.192.032l.272.032h.48c.288 0 .57-.027.848-.08.288-.053.544-.15.768-.288.224-.15.4-.352.528-.608.139-.256.208-.592.208-1.008 0-.352-.064-.64-.192-.864a1.526 1.526 0 0 0-.512-.56 1.885 1.885 0 0 0-.704-.288 4.154 4.154 0 0 0-.816-.08ZM67.46 18.4c0-1.867.41-3.301 1.232-4.304.82-1.013 1.994-1.52 3.52-1.52.8 0 1.498.139 2.096.416a3.949 3.949 0 0 1 1.488 1.184c.394.512.688 1.125.88 1.84.192.715.288 1.51.288 2.384 0 1.867-.416 3.307-1.248 4.32-.822 1.003-1.99 1.504-3.504 1.504-.811 0-1.515-.139-2.112-.416a3.947 3.947 0 0 1-1.488-1.184c-.384-.512-.672-1.125-.864-1.84-.192-.715-.288-1.51-.288-2.384Zm2.304 0c0 .565.048 1.088.144 1.568.096.47.24.875.432 1.216.202.341.458.608.768.8.309.192.677.288 1.104.288.778 0 1.38-.304 1.808-.912.426-.608.64-1.595.64-2.96 0-.544-.048-1.05-.144-1.52a4.087 4.087 0 0 0-.416-1.232 2.143 2.143 0 0 0-.752-.816c-.31-.203-.688-.304-1.136-.304-.78 0-1.382.315-1.808.944-.427.619-.64 1.595-.64 2.928Zm8.766-5.6h6.896v1.952h-4.704v2.336c.182-.032.4-.064.656-.096a7.233 7.233 0 0 1 2.432.128c.502.117.928.315 1.28.592.363.267.646.624.848 1.072.203.437.304.976.304 1.616 0 .63-.106 1.179-.32 1.648a2.94 2.94 0 0 1-.896 1.168c-.384.31-.853.544-1.408.704-.544.16-1.157.24-1.84.24-.181 0-.41-.005-.688-.016a25.311 25.311 0 0 1-1.76-.128 7.01 7.01 0 0 1-.8-.128V12.8Zm3.408 9.552c.278 0 .534-.032.768-.096.246-.075.459-.181.64-.32.182-.15.326-.336.432-.56.107-.224.16-.496.16-.816 0-.384-.058-.693-.176-.928a1.328 1.328 0 0 0-.48-.544 1.706 1.706 0 0 0-.704-.272 5.065 5.065 0 0 0-.832-.064c-.149 0-.336.016-.56.048a3.676 3.676 0 0 0-.464.064v3.408c.118.032.294.053.528.064.246.01.475.016.688.016Zm12.005-3.04h-4.096V24h-2.192V12.8h2.192v4.56h4.096V12.8h2.192V24h-2.192v-4.688Zm4.134-6.512h6.64v1.952h-4.448v2.608h4.048v1.952h-4.048v2.736h4.528V24h-6.72V12.8Zm8.36 0h6.64v1.952h-4.448v2.608h4.048v1.952h-4.048v2.736h4.528V24h-6.72V12.8Z"/></svg>